<svg width="34" height="34" viewBox="0 0 34 34" fill="none" xmlns="http://www.w3.org/2000/svg">
    <path d="M26.2682 15.4081C25.6622 10.6354 21.5759 6.93311 16.6396 6.93311C12.8181 6.93311 9.49851 9.16555 7.98294 12.6862C5.0045 13.5778 2.77344 16.3898 2.77344 19.4126C2.77344 23.0968 5.67007 26.0891 9.30161 26.3055V26.3457H24.9454V26.3415L24.9592 26.3457C28.0181 26.3457 30.5057 23.8581 30.5057 20.7992C30.504 19.5562 30.0857 18.3495 29.3175 17.3722C28.5493 16.3949 27.4757 15.7033 26.2682 15.4081ZM11.0931 16.6394H15.2529V12.4796H18.0262V16.6394H22.186L16.6396 23.5724L11.0931 16.6394Z" fill="white"/>
</svg>
