<svg width="25" height="24" viewBox="0 0 25 24" fill="none" xmlns="http://www.w3.org/2000/svg">
    <path fill-rule="evenodd" clip-rule="evenodd" d="M12.5654 1C6.49043 1 1.56543 5.925 1.56543 12C1.56543 18.075 6.49043 23 12.5654 23C18.6404 23 23.5654 18.075 23.5654 12C23.5654 5.925 18.6404 1 12.5654 1ZM12.0654 6C11.8002 6 11.5459 6.10536 11.3583 6.29289C11.1708 6.48043 11.0654 6.73478 11.0654 7C11.0654 7.26522 11.1708 7.51957 11.3583 7.70711C11.5459 7.89464 11.8002 8 12.0654 8H12.5654C12.8306 8 13.085 7.89464 13.2725 7.70711C13.4601 7.51957 13.5654 7.26522 13.5654 7C13.5654 6.73478 13.4601 6.48043 13.2725 6.29289C13.085 6.10536 12.8306 6 12.5654 6H12.0654ZM10.5654 10C10.3002 10 10.0459 10.1054 9.85832 10.2929C9.67079 10.4804 9.56543 10.7348 9.56543 11C9.56543 11.2652 9.67079 11.5196 9.85832 11.7071C10.0459 11.8946 10.3002 12 10.5654 12H11.5654V15H10.5654C10.3002 15 10.0459 15.1054 9.85832 15.2929C9.67079 15.4804 9.56543 15.7348 9.56543 16C9.56543 16.2652 9.67079 16.5196 9.85832 16.7071C10.0459 16.8946 10.3002 17 10.5654 17H14.5654C14.8306 17 15.085 16.8946 15.2725 16.7071C15.4601 16.5196 15.5654 16.2652 15.5654 16C15.5654 15.7348 15.4601 15.4804 15.2725 15.2929C15.085 15.1054 14.8306 15 14.5654 15H13.5654V11C13.5654 10.7348 13.4601 10.4804 13.2725 10.2929C13.085 10.1054 12.8306 10 12.5654 10H10.5654Z" fill="#141C3F"/>
</svg>
